<svg width="100%" height="100%" viewBox="0 0 16 16" fill="none" xmlns="http://www.w3.org/2000/svg">
<path d="M13.632 13.635h-2.37V9.922c0-.886-.018-2.025-1.234-2.025-1.235 0-1.424.964-1.424 1.96v3.778h-2.37V6h2.275v1.04h.032c.317-.6 1.09-1.233 2.246-1.233 2.4 0 2.845 1.58 2.845 3.637v4.191zM3.558 4.96a1.376 1.376 0 110-2.751 1.376 1.376 0 010 2.751zm1.188 8.675h-2.37V6h2.37v7.635zM14.816 0H1.18C.528 0 0 .516 0 1.153v13.694C0 15.484.528 16 1.18 16h13.635c.652 0 1.185-.516 1.185-1.153V1.153C16 .516 15.467 0 14.815 0z" fill="#4B5563"/>
</svg>
